<mxfile host="app.diagrams.net" agent="Mozilla/5.0 (Windows NT 10.0; Win64; x64) AppleWebKit/537.36 (KHTML, like Gecko) Chrome/130.0.0.0 Safari/537.36" version="24.7.17">
  <diagram name="Seite-1" id="M4j1VgFLpkQvKLZsIPMz">
    <mxGraphModel dx="704" dy="646" grid="1" gridSize="10" guides="1" tooltips="1" connect="1" arrows="1" fold="1" page="1" pageScale="1" pageWidth="827" pageHeight="1169" math="0" shadow="0">
      <root>
        <mxCell id="0" />
        <mxCell id="1" parent="0" />
        <mxCell id="CXe5B8j-0s50EddQ4Sca-35" value="" style="rounded=0;whiteSpace=wrap;html=1;fillColor=#f8cecc;strokeColor=#b85450;" parent="1" vertex="1">
          <mxGeometry x="500" y="380" width="180" height="40" as="geometry" />
        </mxCell>
        <mxCell id="CXe5B8j-0s50EddQ4Sca-34" value="" style="rounded=0;whiteSpace=wrap;html=1;fillColor=#f8cecc;strokeColor=#b85450;" parent="1" vertex="1">
          <mxGeometry x="490" y="370" width="180" height="40" as="geometry" />
        </mxCell>
        <mxCell id="CXe5B8j-0s50EddQ4Sca-33" value="" style="rounded=0;whiteSpace=wrap;html=1;fillColor=#fff2cc;strokeColor=#d6b656;" parent="1" vertex="1">
          <mxGeometry x="140" y="540" width="180" height="40" as="geometry" />
        </mxCell>
        <mxCell id="CXe5B8j-0s50EddQ4Sca-32" value="" style="rounded=0;whiteSpace=wrap;html=1;fillColor=#fff2cc;strokeColor=#d6b656;" parent="1" vertex="1">
          <mxGeometry x="130" y="530" width="180" height="40" as="geometry" />
        </mxCell>
        <mxCell id="CXe5B8j-0s50EddQ4Sca-3" value="&lt;b&gt;Systemparameter&lt;/b&gt;" style="rounded=0;whiteSpace=wrap;html=1;fillColor=#f5f5f5;fontColor=#333333;strokeColor=#666666;" parent="1" vertex="1">
          <mxGeometry x="120" y="200" width="180" height="40" as="geometry" />
        </mxCell>
        <mxCell id="CXe5B8j-0s50EddQ4Sca-6" value="&lt;b&gt;Anlagenmodell&lt;/b&gt;&lt;div&gt;Objekte&lt;/div&gt;" style="rounded=0;whiteSpace=wrap;html=1;fillColor=#f8cecc;strokeColor=#b85450;" parent="1" vertex="1">
          <mxGeometry x="480" y="360" width="180" height="40" as="geometry" />
        </mxCell>
        <mxCell id="CXe5B8j-0s50EddQ4Sca-7" value="&lt;b&gt;Prozessmodell&lt;/b&gt;&lt;br&gt;&lt;div&gt;Skills&lt;/div&gt;" style="rounded=0;whiteSpace=wrap;html=1;fillColor=#fff2cc;strokeColor=#d6b656;" parent="1" vertex="1">
          <mxGeometry x="120" y="520" width="180" height="40" as="geometry" />
        </mxCell>
        <mxCell id="CXe5B8j-0s50EddQ4Sca-8" value="" style="endArrow=classic;html=1;rounded=0;exitX=1;exitY=1;exitDx=0;exitDy=0;entryX=0;entryY=0;entryDx=0;entryDy=0;endFill=1;startArrow=classic;startFill=1;" parent="1" source="CXe5B8j-0s50EddQ4Sca-3" target="CXe5B8j-0s50EddQ4Sca-6" edge="1">
          <mxGeometry width="50" height="50" relative="1" as="geometry">
            <mxPoint x="400" y="390" as="sourcePoint" />
            <mxPoint x="450" y="340" as="targetPoint" />
          </mxGeometry>
        </mxCell>
        <mxCell id="CXe5B8j-0s50EddQ4Sca-9" value="" style="endArrow=classic;html=1;rounded=0;exitX=0.5;exitY=1;exitDx=0;exitDy=0;entryX=0.5;entryY=0;entryDx=0;entryDy=0;endFill=1;startArrow=classic;startFill=1;" parent="1" source="CXe5B8j-0s50EddQ4Sca-3" target="CXe5B8j-0s50EddQ4Sca-7" edge="1">
          <mxGeometry width="50" height="50" relative="1" as="geometry">
            <mxPoint x="310" y="250" as="sourcePoint" />
            <mxPoint x="490" y="370" as="targetPoint" />
          </mxGeometry>
        </mxCell>
        <mxCell id="CXe5B8j-0s50EddQ4Sca-10" value="" style="endArrow=classic;html=1;rounded=0;exitX=0;exitY=1;exitDx=0;exitDy=0;entryX=1;entryY=0;entryDx=0;entryDy=0;endFill=1;startArrow=classic;startFill=1;" parent="1" source="CXe5B8j-0s50EddQ4Sca-6" target="CXe5B8j-0s50EddQ4Sca-7" edge="1">
          <mxGeometry width="50" height="50" relative="1" as="geometry">
            <mxPoint x="220" y="250" as="sourcePoint" />
            <mxPoint x="220" y="530" as="targetPoint" />
          </mxGeometry>
        </mxCell>
        <mxCell id="CXe5B8j-0s50EddQ4Sca-14" value="Ein-/ Ausschalten&lt;div&gt;Stoppen&lt;/div&gt;&lt;div style=&quot;&quot;&gt;Resetten&lt;/div&gt;" style="text;html=1;align=left;verticalAlign=middle;whiteSpace=wrap;rounded=0;" parent="1" vertex="1">
          <mxGeometry x="460" y="290" width="176" height="40" as="geometry" />
        </mxCell>
        <mxCell id="CXe5B8j-0s50EddQ4Sca-15" value="" style="endArrow=none;html=1;rounded=0;dashed=1;entryX=0;entryY=1;entryDx=0;entryDy=0;" parent="1" target="CXe5B8j-0s50EddQ4Sca-14" edge="1">
          <mxGeometry width="50" height="50" relative="1" as="geometry">
            <mxPoint x="450" y="340" as="sourcePoint" />
            <mxPoint x="464" y="320" as="targetPoint" />
          </mxGeometry>
        </mxCell>
        <mxCell id="CXe5B8j-0s50EddQ4Sca-18" value="Informationen 端ber Zustand und Fehler von Objekten" style="text;html=1;align=left;verticalAlign=middle;whiteSpace=wrap;rounded=0;" parent="1" vertex="1">
          <mxGeometry x="340" y="220" width="220" height="30" as="geometry" />
        </mxCell>
        <mxCell id="CXe5B8j-0s50EddQ4Sca-21" value="" style="endArrow=none;html=1;rounded=0;exitX=0;exitY=1;exitDx=0;exitDy=0;dashed=1;" parent="1" source="CXe5B8j-0s50EddQ4Sca-18" edge="1">
          <mxGeometry width="50" height="50" relative="1" as="geometry">
            <mxPoint x="460" y="350" as="sourcePoint" />
            <mxPoint x="330" y="260" as="targetPoint" />
          </mxGeometry>
        </mxCell>
        <mxCell id="CXe5B8j-0s50EddQ4Sca-22" value="Prozessbefehle und Parameter" style="text;html=1;align=left;verticalAlign=middle;whiteSpace=wrap;rounded=0;" parent="1" vertex="1">
          <mxGeometry x="470" y="430" width="220" height="20" as="geometry" />
        </mxCell>
        <mxCell id="CXe5B8j-0s50EddQ4Sca-23" value="" style="endArrow=none;html=1;rounded=0;dashed=1;entryX=0;entryY=0;entryDx=0;entryDy=0;" parent="1" target="CXe5B8j-0s50EddQ4Sca-22" edge="1">
          <mxGeometry width="50" height="50" relative="1" as="geometry">
            <mxPoint x="450" y="420" as="sourcePoint" />
            <mxPoint x="340" y="270" as="targetPoint" />
          </mxGeometry>
        </mxCell>
        <mxCell id="CXe5B8j-0s50EddQ4Sca-24" value="Informationen 端ber Zustand und Messwerte" style="text;html=1;align=left;verticalAlign=middle;whiteSpace=wrap;rounded=0;" parent="1" vertex="1">
          <mxGeometry x="350" y="520" width="240" height="20" as="geometry" />
        </mxCell>
        <mxCell id="CXe5B8j-0s50EddQ4Sca-25" value="" style="endArrow=none;html=1;rounded=0;exitX=0;exitY=0;exitDx=0;exitDy=0;dashed=1;" parent="1" source="CXe5B8j-0s50EddQ4Sca-24" edge="1">
          <mxGeometry width="50" height="50" relative="1" as="geometry">
            <mxPoint x="390" y="520" as="sourcePoint" />
            <mxPoint x="330" y="500" as="targetPoint" />
          </mxGeometry>
        </mxCell>
        <mxCell id="CXe5B8j-0s50EddQ4Sca-26" value="Informationen 端ber&amp;nbsp;&lt;div&gt;Zustand und Fehler&lt;/div&gt;&lt;div&gt;von Prozess&lt;/div&gt;" style="text;html=1;align=left;verticalAlign=middle;whiteSpace=wrap;rounded=0;" parent="1" vertex="1">
          <mxGeometry x="80" y="285" width="120" height="45" as="geometry" />
        </mxCell>
        <mxCell id="CXe5B8j-0s50EddQ4Sca-27" value="" style="endArrow=none;html=1;rounded=0;exitX=0.917;exitY=0.111;exitDx=0;exitDy=0;dashed=1;exitPerimeter=0;" parent="1" source="CXe5B8j-0s50EddQ4Sca-26" edge="1">
          <mxGeometry width="50" height="50" relative="1" as="geometry">
            <mxPoint x="350" y="260" as="sourcePoint" />
            <mxPoint x="210" y="270" as="targetPoint" />
          </mxGeometry>
        </mxCell>
        <mxCell id="CXe5B8j-0s50EddQ4Sca-30" value="&lt;span style=&quot;color: rgb(0, 0, 0); font-family: Helvetica; font-size: 12px; font-style: normal; font-variant-ligatures: normal; font-variant-caps: normal; font-weight: 400; letter-spacing: normal; orphans: 2; text-align: left; text-indent: 0px; text-transform: none; widows: 2; word-spacing: 0px; -webkit-text-stroke-width: 0px; white-space: normal; background-color: rgb(251, 251, 251); text-decoration-thickness: initial; text-decoration-style: initial; text-decoration-color: initial; display: inline !important; float: none;&quot;&gt;Informationen 端ber Zustand von System&lt;/span&gt;" style="text;whiteSpace=wrap;html=1;" parent="1" vertex="1">
          <mxGeometry x="40" y="410" width="150" height="40" as="geometry" />
        </mxCell>
        <mxCell id="CXe5B8j-0s50EddQ4Sca-31" value="" style="endArrow=none;html=1;rounded=0;dashed=1;entryX=1;entryY=0.75;entryDx=0;entryDy=0;" parent="1" target="CXe5B8j-0s50EddQ4Sca-30" edge="1">
          <mxGeometry width="50" height="50" relative="1" as="geometry">
            <mxPoint x="210" y="460" as="sourcePoint" />
            <mxPoint x="340" y="270" as="targetPoint" />
          </mxGeometry>
        </mxCell>
        <mxCell id="CXe5B8j-0s50EddQ4Sca-36" value="Objektschnittstelle" style="rounded=0;whiteSpace=wrap;html=1;fontSize=8;" parent="1" vertex="1">
          <mxGeometry x="330" y="287.5" width="120" height="20" as="geometry" />
        </mxCell>
        <mxCell id="CXe5B8j-0s50EddQ4Sca-37" value="Modellschnittstelle" style="rounded=0;whiteSpace=wrap;html=1;fontSize=8;" parent="1" vertex="1">
          <mxGeometry x="330" y="450" width="120" height="20" as="geometry" />
        </mxCell>
        <mxCell id="CXe5B8j-0s50EddQ4Sca-39" value="Koordinationsschnittstelle" style="rounded=0;whiteSpace=wrap;html=1;fontSize=8;" parent="1" vertex="1">
          <mxGeometry x="150" y="360" width="120" height="20" as="geometry" />
        </mxCell>
      </root>
    </mxGraphModel>
  </diagram>
</mxfile>
